<?xml version="1.0" encoding="UTF-8" standalone="no"?>
<!-- Generator: visioncortex VTracer 0.6.12 -->

<svg
   version="1.1"
   width="100"
   height="100"
   id="svg4"
   xmlns="http://www.w3.org/2000/svg"
   xmlns:svg="http://www.w3.org/2000/svg">
  <defs
     id="defs4" />
  <g
     id="g4"
     transform="translate(-46.869629,-36.367894)">
    <path
       d="m 116.8172,37.065467 c 1.47076,0.930124 2.64515,2.142608 3.85042,3.384846 0.22269,0.225194 0.44544,0.45018 0.6685,0.674968 0.89809,0.911993 1.78753,1.826587 2.6242,2.795499 3.04,3.513336 6.36882,6.76194 9.65577,10.041135 0.72081,0.719096 1.4405,1.439248 2.15994,2.159705 0.56128,0.561793 1.12306,1.123006 1.68499,1.684062 0.26557,0.265344 0.53106,0.530832 0.79634,0.796499 1.26805,1.269479 2.53472,2.529802 3.90369,3.692146 0.72389,0.621721 1.40456,1.286893 2.08479,1.955559 0.13957,0.13269 0.27913,0.265428 0.42291,0.402152 1.0998,1.083418 1.92294,2.208774 2.20088,3.753328 -0.0474,1.911474 -0.67049,3.073832 -1.94658,4.481559 -2.50195,2.350779 -5.375,3.118797 -8.73069,3.086964 -2.57577,-0.148242 -4.80052,-0.958896 -6.93622,-2.381978 -0.0441,0.07227 -0.0441,0.07227 -0.267,0.438167 -0.90882,1.461441 -1.88176,2.852113 -2.90667,4.233563 -0.81463,1.099078 -1.6102,2.209959 -2.39647,3.329503 -0.97157,1.382442 -1.95353,2.756626 -2.94548,4.12449 -1.09805,1.514641 -2.18275,3.037992 -3.25905,4.568186 -0.74292,1.054389 -1.49331,2.102946 -2.2498,3.147658 -0.26132,0.360797 -0.522,0.721989 -0.78219,1.083528 -0.53184,0.738504 -1.06641,1.471797 -1.6203,2.194046 -0.15122,0.200486 -0.30258,0.401003 -0.45837,0.607583 -0.12695,0.162335 -0.25383,0.324663 -0.38461,0.491862 -0.32647,0.715345 -0.20234,1.150991 0.005,1.898265 0.28797,0.515618 0.28797,0.515618 0.64157,1.020268 0.98391,1.57294 1.44825,3.26895 1.92476,5.04258 0.0752,0.26006 0.15036,0.52009 0.22783,0.78797 1.37875,5.55721 0.83877,11.77834 -2.09426,16.70106 -1.17905,1.92313 -2.41127,3.18705 -4.43274,4.19734 -1.40704,0.15737 -2.8255,0.3116 -4.00993,-0.56837 -0.29734,-0.27601 -0.5937,-0.55303 -0.88947,-0.83074 -0.36052,-0.3217 -0.72144,-0.64292 -1.0827,-0.96383 -1.19741,-1.07613 -2.343978,-2.19498 -3.481028,-3.33422 -0.104656,-0.10444 -0.104656,-0.10444 -0.634349,-0.63281 -0.56687,-0.56559 -1.133046,-1.13181 -1.699019,-1.69828 -0.596404,-0.5967 -1.193382,-1.19282 -1.790249,-1.789 -1.00108,-1.00021 -2.001702,-2.00085 -3.002025,-3.00181 -1.152273,-1.15295 -2.305384,-2.30512 -3.458954,-3.45677 -0.995722,-0.99414 -1.99099,-1.98874 -2.985892,-2.98379 -0.591884,-0.59199 -1.183947,-1.18382 -1.77641,-1.77517 -0.66052,-0.65943 -1.320047,-1.31969 -1.979501,-1.98014 -0.193352,-0.19279 -0.386681,-0.38552 -0.585898,-0.58417 -0.981681,-0.98478 -1.929117,-1.98584 -2.83485,-3.04107 -2.451381,-2.847587 -5.164774,-5.476956 -7.818187,-8.13376 -0.15857,-0.159099 -0.317109,-0.318126 -0.480467,-0.482047 -0.461302,-0.462387 -0.923472,-0.923959 -1.38596,-1.385253 -0.136741,-0.137183 -0.273473,-0.274246 -0.414363,-0.415498 -0.69,-0.685909 -1.392964,-1.344883 -2.129374,-1.980943 -1.02368,-0.885634 -1.988811,-1.823757 -2.950761,-2.775539 -0.182106,-0.18019 -0.364249,-0.360343 -0.551876,-0.545933 -0.381659,-0.378243 -0.762939,-0.756877 -1.143926,-1.135824 -0.38883,-0.38587 -0.778653,-0.770698 -1.169489,-1.154534 -0.568554,-0.558304 -1.133924,-1.119616 -1.698696,-1.681729 -0.174248,-0.170077 -0.348497,-0.340119 -0.528027,-0.515402 -1.281098,-1.285836 -2.111143,-2.434161 -2.113951,-4.323188 0.06989,-1.896549 0.724956,-2.930406 2.085148,-4.226511 4.873917,-4.14289 10.623431,-4.377018 16.730411,-4.017942 1.750195,0.175755 3.385398,0.641306 5.054301,1.175996 0.202613,0.06414 0.405236,0.128401 0.614013,0.19449 1.281856,0.437 2.287991,0.993193 3.357717,1.8265 0.490185,0.252616 0.490185,0.252616 1.085971,0.20461 0.844255,-0.274026 1.517504,-0.768053 2.233024,-1.27835 0.161345,-0.112823 0.322681,-0.225681 0.488931,-0.342023 1.472681,-1.036736 2.919079,-2.109541 4.36499,-3.183247 1.302963,-0.964884 2.626719,-1.891265 3.96876,-2.800799 1.232324,-0.83989 2.432791,-1.718669 3.629877,-2.607841 1.494329,-1.10964 3.004079,-2.187182 4.543949,-3.232562 1.89705,-1.291587 3.74967,-2.645397 5.60475,-3.996211 -0.11249,-0.228162 -0.22494,-0.456307 -0.34083,-0.69135 -1.65173,-3.399138 -2.45146,-6.756517 -1.3652,-10.501599 0.81733,-2.293648 2.0303,-4.664302 4.19947,-5.946249 1.66421,-0.714255 3.32336,-0.668799 4.89846,0.200395 z"
       fill="#2e2e2e"
       id="path2"
       style="stroke-width:0.233245" />
    <path
       d="m 73.338302,100.44754 c 0.760662,0.23616 1.137064,0.56645 1.715824,1.11127 0.202855,0.18991 0.405796,0.37986 0.614815,0.5756 1.010196,0.97558 2.013085,1.95713 3.004119,2.95224 0.198339,0.19735 0.396665,0.3947 0.600995,0.59799 3.393704,3.39724 3.393704,3.39724 3.554692,4.51754 -0.681015,1.65209 -2.412549,2.70745 -3.786621,3.75195 -0.850048,0.6483 -1.662011,1.33302 -2.468813,2.03397 -1.70911,1.48015 -3.453392,2.91554 -5.203302,4.34713 -0.372274,0.30511 -0.743389,0.6117 -1.114118,0.91873 -2.719666,2.24717 -5.533225,4.37977 -8.332372,6.52646 -0.772627,0.59396 -1.540745,1.19363 -2.309,1.79316 -1.557079,1.2143 -3.11847,2.42253 -4.69467,3.61203 -0.146109,0.11101 -0.292212,0.2221 -0.442742,0.33648 -2.068538,1.55275 -4.378192,3.14712 -7.110454,2.79695 -0.466608,-0.46633 -0.466608,-0.46633 -0.497026,-0.90075 0.147284,-1.41341 0.564971,-2.44426 1.284422,-3.6609 0.0518,-0.0901 0.0518,-0.0901 0.31396,-0.54626 1.643867,-2.81421 3.553843,-5.4355 5.566699,-7.99501 0.372634,-0.47486 0.742929,-0.9515 1.11297,-1.42844 0.696782,-0.89778 1.395057,-1.79442 2.094155,-2.69046 0.244824,-0.31393 0.489471,-0.62807 0.733856,-0.94236 2.31636,-2.97892 4.716194,-5.88836 7.161693,-8.76214 0.652275,-0.76731 1.293716,-1.54238 1.928813,-2.32396 1.04353,-1.2804 2.112638,-2.53729 3.195162,-3.78473 0.416601,-0.48035 0.820919,-0.96472 1.221227,-1.45927 0.159342,-0.19323 0.318743,-0.38648 0.483025,-0.58566 0.134386,-0.16808 0.268823,-0.33604 0.407318,-0.5092 0.423796,-0.32149 0.423796,-0.32149 0.965373,-0.28236 z"
       fill="#2e2e2e"
       id="path3"
       style="stroke-width:0.233245" />
    <path
       d="m 76.676301,76.785503 c 2.376282,0.983088 4.156859,2.898993 5.934321,4.689076 0.39393,0.396268 0.790282,0.789899 1.186928,1.183353 0.254353,0.254572 0.508648,0.509323 0.762765,0.764296 0.116864,0.115846 0.233829,0.231803 0.354316,0.351193 0.952153,0.964393 1.810535,1.852799 1.982351,3.226736 -0.228234,1.825045 -1.375495,3.116112 -2.712158,4.299344 -1.046922,0.395339 -2.122156,0.441494 -3.2225,0.247761 -1.273772,-0.736046 -2.254753,-1.71586 -3.289911,-2.751748 -0.177049,-0.175957 -0.354104,-0.351915 -0.536565,-0.533205 -0.372689,-0.371258 -0.744842,-0.743118 -1.116382,-1.11548 -0.56663,-0.567088 -1.136312,-1.131004 -1.706241,-1.69474 -0.362911,-0.362204 -0.725654,-0.724549 -1.088204,-1.087163 -0.169414,-0.167145 -0.338819,-0.334358 -0.513331,-0.506555 -1.033178,-1.042116 -2.020631,-2.086916 -2.371965,-3.555951 0.02578,-1.51214 0.573336,-2.262788 1.61125,-3.300112 1.483769,-0.664811 3.15875,-0.63094 4.725326,-0.216805 z"
       fill="#fbfbfb"
       id="path4"
       style="stroke-width:0.233245" />
  </g>
</svg>
